<?xml version="1.0" encoding="UTF-8" standalone="no"?>
<!DOCTYPE svg PUBLIC "-//W3C//DTD SVG 1.1//EN"
 "http://www.w3.org/Graphics/SVG/1.1/DTD/svg11.dtd">
<!-- Generated by graphviz version 2.40.1 (20161225.0304)
 -->
<!-- Title: dependencies Pages: 1 -->
<svg width="1800pt" height="211pt"
 viewBox="0.00 0.00 1800.00 211.00" xmlns="http://www.w3.org/2000/svg" xmlns:xlink="http://www.w3.org/1999/xlink">
<g id="graph0" class="graph" transform="scale(1 1) rotate(0) translate(4 207)">
<title>dependencies</title>
<polygon fill="#ffffff" stroke="transparent" points="-4,4 -4,-207 1796,-207 1796,4 -4,4"/>
<text text-anchor="start" x="875.0091" y="-42.4" font-family="sans-serif" font-weight="bold" font-size="14.00" fill="#000000">Legend</text>
<polygon fill="#ffffb3" stroke="transparent" points="662,-10 662,-30 682,-30 682,-10 662,-10"/>
<text text-anchor="start" x="685.629" y="-15.4" font-family="sans-serif" font-size="14.00" fill="#000000"> &#160;Declarations</text>
<polygon fill="#8dd3c7" stroke="transparent" points="775,-10 775,-30 795,-30 795,-10 775,-10"/>
<text text-anchor="start" x="798.7251" y="-15.4" font-family="sans-serif" font-size="14.00" fill="#000000"> &#160;Module</text>
<polygon fill="#80b1d3" stroke="transparent" points="861,-10 861,-30 881,-30 881,-10 861,-10"/>
<text text-anchor="start" x="884.7812" y="-15.4" font-family="sans-serif" font-size="14.00" fill="#000000"> &#160;Bootstrap</text>
<polygon fill="#fdb462" stroke="transparent" points="958,-10 958,-30 978,-30 978,-10 958,-10"/>
<text text-anchor="start" x="981.6732" y="-15.4" font-family="sans-serif" font-size="14.00" fill="#000000"> &#160;Providers</text>
<polygon fill="#fb8072" stroke="transparent" points="1054,-10 1054,-30 1074,-30 1074,-10 1054,-10"/>
<text text-anchor="start" x="1077.7258" y="-15.4" font-family="sans-serif" font-size="14.00" fill="#000000"> &#160;Exports</text>
<g id="clust1" class="cluster">
<title>cluster_DashboardModule</title>
<polygon fill="none" stroke="#000000" stroke-dasharray="1,5" points="8,-70 8,-195 1784,-195 1784,-70 8,-70"/>
</g>
<g id="clust2" class="cluster">
<title>cluster_DashboardModule_declarations</title>
<polygon fill="none" stroke="#000000" points="1488,-78 1488,-130 1776,-130 1776,-78 1488,-78"/>
</g>
<g id="clust5" class="cluster">
<title>cluster_DashboardModule_imports</title>
<polygon fill="none" stroke="#000000" points="16,-78 16,-130 1480,-130 1480,-78 16,-78"/>
</g>
<!-- PerfilComponent -->
<g id="node1" class="node">
<title>PerfilComponent</title>
<polygon fill="#ffffb3" stroke="#000000" points="1768.4328,-122 1655.5672,-122 1655.5672,-86 1768.4328,-86 1768.4328,-122"/>
<text text-anchor="middle" x="1712" y="-99.8" font-family="Times,serif" font-size="14.00" fill="#000000">PerfilComponent</text>
</g>
<!-- DashboardModule -->
<g id="node3" class="node">
<title>DashboardModule</title>
<polygon fill="#8dd3c7" stroke="#000000" points="1080.191,-187 1077.191,-191 1056.191,-191 1053.191,-187 959.809,-187 959.809,-151 1080.191,-151 1080.191,-187"/>
<text text-anchor="middle" x="1020" y="-164.8" font-family="Times,serif" font-size="14.00" fill="#000000">DashboardModule</text>
</g>
<!-- PerfilComponent&#45;&gt;DashboardModule -->
<g id="edge1" class="edge">
<title>PerfilComponent&#45;&gt;DashboardModule</title>
<path fill="none" stroke="#000000" d="M1712,-122.0908C1712,-145.1328 1712,-182 1712,-182 1712,-182 1090.1999,-182 1090.1999,-182"/>
<polygon fill="#000000" stroke="#000000" points="1090.1999,-178.5001 1080.1999,-182 1090.1999,-185.5001 1090.1999,-178.5001"/>
</g>
<!-- DashboardComponent -->
<g id="node2" class="node">
<title>DashboardComponent</title>
<polygon fill="#ffffb3" stroke="#000000" points="1637.9734,-122 1496.0266,-122 1496.0266,-86 1637.9734,-86 1637.9734,-122"/>
<text text-anchor="middle" x="1567" y="-99.8" font-family="Times,serif" font-size="14.00" fill="#000000">DashboardComponent</text>
</g>
<!-- DashboardComponent&#45;&gt;DashboardModule -->
<g id="edge2" class="edge">
<title>DashboardComponent&#45;&gt;DashboardModule</title>
<path fill="none" stroke="#000000" d="M1567,-122.2843C1567,-143.3211 1567,-175 1567,-175 1567,-175 1090.1033,-175 1090.1033,-175"/>
<polygon fill="#000000" stroke="#000000" points="1090.1033,-171.5001 1080.1033,-175 1090.1033,-178.5001 1090.1033,-171.5001"/>
</g>
<!-- CommonModule -->
<g id="node4" class="node">
<title>CommonModule</title>
<polygon fill="#8dd3c7" stroke="#000000" points="1471.6681,-122 1468.6681,-126 1447.6681,-126 1444.6681,-122 1360.3319,-122 1360.3319,-86 1471.6681,-86 1471.6681,-122"/>
<text text-anchor="middle" x="1416" y="-99.8" font-family="Times,serif" font-size="14.00" fill="#000000">CommonModule</text>
</g>
<!-- CommonModule&#45;&gt;DashboardModule -->
<g id="edge3" class="edge">
<title>CommonModule&#45;&gt;DashboardModule</title>
<path fill="none" stroke="#000000" d="M1416,-122.1061C1416,-141.3391 1416,-169 1416,-169 1416,-169 1090.1439,-169 1090.1439,-169"/>
<polygon fill="#000000" stroke="#000000" points="1090.1439,-165.5001 1080.1439,-169 1090.1438,-172.5001 1090.1439,-165.5001"/>
</g>
<!-- HttpClientModule -->
<g id="node5" class="node">
<title>HttpClientModule</title>
<polygon fill="#8dd3c7" stroke="#000000" points="1342.1611,-122 1339.1611,-126 1318.1611,-126 1315.1611,-122 1223.8389,-122 1223.8389,-86 1342.1611,-86 1342.1611,-122"/>
<text text-anchor="middle" x="1283" y="-99.8" font-family="Times,serif" font-size="14.00" fill="#000000">HttpClientModule</text>
</g>
<!-- HttpClientModule&#45;&gt;DashboardModule -->
<g id="edge4" class="edge">
<title>HttpClientModule&#45;&gt;DashboardModule</title>
<path fill="none" stroke="#000000" d="M1283,-122.0225C1283,-139.3734 1283,-163 1283,-163 1283,-163 1090.3375,-163 1090.3375,-163"/>
<polygon fill="#000000" stroke="#000000" points="1090.3375,-159.5001 1080.3375,-163 1090.3375,-166.5001 1090.3375,-159.5001"/>
</g>
<!-- FormsModule -->
<g id="node6" class="node">
<title>FormsModule</title>
<polygon fill="#8dd3c7" stroke="#000000" points="1205.8288,-122 1202.8288,-126 1181.8288,-126 1178.8288,-122 1110.1712,-122 1110.1712,-86 1205.8288,-86 1205.8288,-122"/>
<text text-anchor="middle" x="1158" y="-99.8" font-family="Times,serif" font-size="14.00" fill="#000000">FormsModule</text>
</g>
<!-- FormsModule&#45;&gt;DashboardModule -->
<g id="edge5" class="edge">
<title>FormsModule&#45;&gt;DashboardModule</title>
<path fill="none" stroke="#000000" d="M1158,-122.2396C1158,-137.5706 1158,-157 1158,-157 1158,-157 1090.1274,-157 1090.1274,-157"/>
<polygon fill="#000000" stroke="#000000" points="1090.1274,-153.5001 1080.1274,-157 1090.1273,-160.5001 1090.1274,-153.5001"/>
</g>
<!-- ReactiveFormsModule -->
<g id="node7" class="node">
<title>ReactiveFormsModule</title>
<polygon fill="#8dd3c7" stroke="#000000" points="1092.3047,-122 1089.3047,-126 1068.3047,-126 1065.3047,-122 947.6953,-122 947.6953,-86 1092.3047,-86 1092.3047,-122"/>
<text text-anchor="middle" x="1020" y="-99.8" font-family="Times,serif" font-size="14.00" fill="#000000">ReactiveFormsModule</text>
</g>
<!-- ReactiveFormsModule&#45;&gt;DashboardModule -->
<g id="edge6" class="edge">
<title>ReactiveFormsModule&#45;&gt;DashboardModule</title>
<path fill="none" stroke="#000000" d="M1020,-122.1061C1020,-122.1061 1020,-140.991 1020,-140.991"/>
<polygon fill="#000000" stroke="#000000" points="1016.5001,-140.9909 1020,-150.991 1023.5001,-140.991 1016.5001,-140.9909"/>
</g>
<!-- DashboardRoutingModule -->
<g id="node8" class="node">
<title>DashboardRoutingModule</title>
<polygon fill="#8dd3c7" stroke="#000000" points="929.8089,-122 926.8089,-126 905.8089,-126 902.8089,-122 764.1911,-122 764.1911,-86 929.8089,-86 929.8089,-122"/>
<text text-anchor="middle" x="847" y="-99.8" font-family="Times,serif" font-size="14.00" fill="#000000">DashboardRoutingModule</text>
</g>
<!-- DashboardRoutingModule&#45;&gt;DashboardModule -->
<g id="edge7" class="edge">
<title>DashboardRoutingModule&#45;&gt;DashboardModule</title>
<path fill="none" stroke="#000000" d="M847,-122.2396C847,-137.5706 847,-157 847,-157 847,-157 949.493,-157 949.493,-157"/>
<polygon fill="#000000" stroke="#000000" points="949.493,-160.5001 959.493,-157 949.493,-153.5001 949.493,-160.5001"/>
</g>
<!-- MaterialModule -->
<g id="node9" class="node">
<title>MaterialModule</title>
<polygon fill="#8dd3c7" stroke="#000000" points="746.4706,-122 743.4706,-126 722.4706,-126 719.4706,-122 639.5294,-122 639.5294,-86 746.4706,-86 746.4706,-122"/>
<text text-anchor="middle" x="693" y="-99.8" font-family="Times,serif" font-size="14.00" fill="#000000">MaterialModule</text>
</g>
<!-- MaterialModule&#45;&gt;DashboardModule -->
<g id="edge8" class="edge">
<title>MaterialModule&#45;&gt;DashboardModule</title>
<path fill="none" stroke="#000000" d="M693,-122.0225C693,-139.3734 693,-163 693,-163 693,-163 949.6421,-163 949.6421,-163"/>
<polygon fill="#000000" stroke="#000000" points="949.6421,-166.5001 959.6421,-163 949.642,-159.5001 949.6421,-166.5001"/>
</g>
<!-- NgxMaskModule.forRoot() -->
<g id="node10" class="node">
<title>NgxMaskModule.forRoot()</title>
<polygon fill="#8dd3c7" stroke="#000000" points="621.6298,-122 618.6298,-126 597.6298,-126 594.6298,-122 450.3702,-122 450.3702,-86 621.6298,-86 621.6298,-122"/>
<text text-anchor="middle" x="536" y="-99.8" font-family="Times,serif" font-size="14.00" fill="#000000">NgxMaskModule.forRoot()</text>
</g>
<!-- NgxMaskModule.forRoot()&#45;&gt;DashboardModule -->
<g id="edge9" class="edge">
<title>NgxMaskModule.forRoot()&#45;&gt;DashboardModule</title>
<path fill="none" stroke="#000000" d="M536,-122.1061C536,-141.3391 536,-169 536,-169 536,-169 949.6797,-169 949.6797,-169"/>
<polygon fill="#000000" stroke="#000000" points="949.6797,-172.5001 959.6797,-169 949.6796,-165.5001 949.6797,-172.5001"/>
</g>
<!-- NgxLoadingModule.forRoot(args) -->
<g id="node11" class="node">
<title>NgxLoadingModule.forRoot(args)</title>
<polygon fill="#8dd3c7" stroke="#000000" points="432.0036,-122 429.0036,-126 408.0036,-126 405.0036,-122 221.9964,-122 221.9964,-86 432.0036,-86 432.0036,-122"/>
<text text-anchor="middle" x="327" y="-99.8" font-family="Times,serif" font-size="14.00" fill="#000000">NgxLoadingModule.forRoot(args)</text>
</g>
<!-- NgxLoadingModule.forRoot(args)&#45;&gt;DashboardModule -->
<g id="edge10" class="edge">
<title>NgxLoadingModule.forRoot(args)&#45;&gt;DashboardModule</title>
<path fill="none" stroke="#000000" d="M327,-122.2843C327,-143.3211 327,-175 327,-175 327,-175 949.7131,-175 949.7131,-175"/>
<polygon fill="#000000" stroke="#000000" points="949.7131,-178.5001 959.7131,-175 949.7131,-171.5001 949.7131,-178.5001"/>
</g>
<!-- PasswordStrengthBarModule -->
<g id="node12" class="node">
<title>PasswordStrengthBarModule</title>
<polygon fill="#8dd3c7" stroke="#000000" points="204.3543,-122 201.3543,-126 180.3543,-126 177.3543,-122 23.6457,-122 23.6457,-86 204.3543,-86 204.3543,-122"/>
<text text-anchor="middle" x="114" y="-99.8" font-family="Times,serif" font-size="14.00" fill="#000000">PasswordStrengthBarModule</text>
</g>
<!-- PasswordStrengthBarModule&#45;&gt;DashboardModule -->
<g id="edge11" class="edge">
<title>PasswordStrengthBarModule&#45;&gt;DashboardModule</title>
<path fill="none" stroke="#000000" d="M114,-122.0908C114,-145.1328 114,-182 114,-182 114,-182 949.8532,-182 949.8532,-182"/>
<polygon fill="#000000" stroke="#000000" points="949.8532,-185.5001 959.8532,-182 949.8531,-178.5001 949.8532,-185.5001"/>
</g>
</g>
</svg>
