<?xml version="1.0" encoding="UTF-8" standalone="no"?>
<!DOCTYPE svg PUBLIC "-//W3C//DTD SVG 1.1//EN"
 "http://www.w3.org/Graphics/SVG/1.1/DTD/svg11.dtd">
<!-- Generated by graphviz version 2.40.1 (20161225.0304)
 -->
<!-- Title: dependencies Pages: 1 -->
<svg width="3062pt" height="284pt"
 viewBox="0.00 0.00 3062.00 284.00" xmlns="http://www.w3.org/2000/svg" xmlns:xlink="http://www.w3.org/1999/xlink">
<g id="graph0" class="graph" transform="scale(1 1) rotate(0) translate(4 280)">
<title>dependencies</title>
<polygon fill="#ffffff" stroke="transparent" points="-4,4 -4,-280 3058,-280 3058,4 -4,4"/>
<text text-anchor="start" x="1506.0091" y="-42.4" font-family="sans-serif" font-weight="bold" font-size="14.00" fill="#000000">Legend</text>
<polygon fill="#ffffb3" stroke="transparent" points="1293,-10 1293,-30 1313,-30 1313,-10 1293,-10"/>
<text text-anchor="start" x="1316.629" y="-15.4" font-family="sans-serif" font-size="14.00" fill="#000000"> &#160;Declarations</text>
<polygon fill="#8dd3c7" stroke="transparent" points="1406,-10 1406,-30 1426,-30 1426,-10 1406,-10"/>
<text text-anchor="start" x="1429.7251" y="-15.4" font-family="sans-serif" font-size="14.00" fill="#000000"> &#160;Module</text>
<polygon fill="#80b1d3" stroke="transparent" points="1492,-10 1492,-30 1512,-30 1512,-10 1492,-10"/>
<text text-anchor="start" x="1515.7812" y="-15.4" font-family="sans-serif" font-size="14.00" fill="#000000"> &#160;Bootstrap</text>
<polygon fill="#fdb462" stroke="transparent" points="1589,-10 1589,-30 1609,-30 1609,-10 1589,-10"/>
<text text-anchor="start" x="1612.6732" y="-15.4" font-family="sans-serif" font-size="14.00" fill="#000000"> &#160;Providers</text>
<polygon fill="#fb8072" stroke="transparent" points="1685,-10 1685,-30 1705,-30 1705,-10 1685,-10"/>
<text text-anchor="start" x="1708.7258" y="-15.4" font-family="sans-serif" font-size="14.00" fill="#000000"> &#160;Exports</text>
<g id="clust1" class="cluster">
<title>cluster_AppModule</title>
<polygon fill="none" stroke="#000000" stroke-dasharray="1,5" points="8,-70 8,-268 3046,-268 3046,-70 8,-70"/>
</g>
<g id="clust2" class="cluster">
<title>cluster_AppModule_declarations</title>
<polygon fill="none" stroke="#000000" points="2542,-78 2542,-130 3038,-130 3038,-78 2542,-78"/>
</g>
<g id="clust6" class="cluster">
<title>cluster_AppModule_imports</title>
<polygon fill="none" stroke="#000000" points="882,-78 882,-130 2534,-130 2534,-78 882,-78"/>
</g>
<g id="clust8" class="cluster">
<title>cluster_AppModule_bootstrap</title>
<polygon fill="none" stroke="#000000" points="1788,-208 1788,-260 1912,-260 1912,-208 1788,-208"/>
</g>
<g id="clust9" class="cluster">
<title>cluster_AppModule_providers</title>
<polygon fill="none" stroke="#000000" points="16,-78 16,-130 874,-130 874,-78 16,-78"/>
</g>
<!-- AppComponent -->
<g id="node1" class="node">
<title>AppComponent</title>
<polygon fill="#ffffb3" stroke="#000000" points="3029.9399,-122 2924.0601,-122 2924.0601,-86 3029.9399,-86 3029.9399,-122"/>
<text text-anchor="middle" x="2977" y="-99.8" font-family="Times,serif" font-size="14.00" fill="#000000">AppComponent</text>
</g>
<!-- AppModule -->
<g id="node4" class="node">
<title>AppModule</title>
<polygon fill="#8dd3c7" stroke="#000000" points="1891.6571,-187 1888.6571,-191 1867.6571,-191 1864.6571,-187 1808.3429,-187 1808.3429,-151 1891.6571,-151 1891.6571,-187"/>
<text text-anchor="middle" x="1850" y="-164.8" font-family="Times,serif" font-size="14.00" fill="#000000">AppModule</text>
</g>
<!-- AppComponent&#45;&gt;AppModule -->
<g id="edge1" class="edge">
<title>AppComponent&#45;&gt;AppModule</title>
<path fill="none" stroke="#000000" d="M2977,-122.3228C2977,-145.6602 2977,-183 2977,-183 2977,-183 1901.7844,-183 1901.7844,-183"/>
<polygon fill="#000000" stroke="#000000" points="1901.7844,-179.5001 1891.7844,-183 1901.7843,-186.5001 1901.7844,-179.5001"/>
</g>
<!-- RecuperarSenhaComponent -->
<g id="node2" class="node">
<title>RecuperarSenhaComponent</title>
<polygon fill="#ffffb3" stroke="#000000" points="2906.5604,-122 2733.4396,-122 2733.4396,-86 2906.5604,-86 2906.5604,-122"/>
<text text-anchor="middle" x="2820" y="-99.8" font-family="Times,serif" font-size="14.00" fill="#000000">RecuperarSenhaComponent</text>
</g>
<!-- RecuperarSenhaComponent&#45;&gt;AppModule -->
<g id="edge2" class="edge">
<title>RecuperarSenhaComponent&#45;&gt;AppModule</title>
<path fill="none" stroke="#000000" d="M2820,-122.2921C2820,-144.2057 2820,-178 2820,-178 2820,-178 1901.6797,-178 1901.6797,-178"/>
<polygon fill="#000000" stroke="#000000" points="1901.6797,-174.5001 1891.6797,-178 1901.6797,-181.5001 1901.6797,-174.5001"/>
</g>
<!-- PageNotFoundComponent -->
<g id="node3" class="node">
<title>PageNotFoundComponent</title>
<polygon fill="#ffffb3" stroke="#000000" points="2715.8243,-122 2550.1757,-122 2550.1757,-86 2715.8243,-86 2715.8243,-122"/>
<text text-anchor="middle" x="2633" y="-99.8" font-family="Times,serif" font-size="14.00" fill="#000000">PageNotFoundComponent</text>
</g>
<!-- PageNotFoundComponent&#45;&gt;AppModule -->
<g id="edge3" class="edge">
<title>PageNotFoundComponent&#45;&gt;AppModule</title>
<path fill="none" stroke="#000000" d="M2633,-122.0267C2633,-142.7672 2633,-174 2633,-174 2633,-174 1901.8207,-174 1901.8207,-174"/>
<polygon fill="#000000" stroke="#000000" points="1901.8207,-170.5001 1891.8207,-174 1901.8206,-177.5001 1901.8207,-170.5001"/>
</g>
<!-- AppComponent  -->
<g id="node15" class="node">
<title>AppComponent </title>
<polygon fill="#80b1d3" stroke="#000000" points="1904.439,-252 1795.561,-252 1795.561,-216 1904.439,-216 1904.439,-252"/>
<text text-anchor="middle" x="1850" y="-229.8" font-family="Times,serif" font-size="14.00" fill="#000000">AppComponent </text>
</g>
<!-- AppModule&#45;&gt;AppComponent  -->
<g id="edge14" class="edge">
<title>AppModule&#45;&gt;AppComponent </title>
<path fill="none" stroke="#000000" stroke-dasharray="1,5" d="M1850,-187.1061C1850,-187.1061 1850,-205.991 1850,-205.991"/>
<polygon fill="#000000" stroke="#000000" points="1846.5001,-205.9909 1850,-215.991 1853.5001,-205.991 1846.5001,-205.9909"/>
</g>
<!-- BrowserModule -->
<g id="node5" class="node">
<title>BrowserModule</title>
<polygon fill="#8dd3c7" stroke="#000000" points="2526.4734,-122 2523.4734,-126 2502.4734,-126 2499.4734,-122 2419.5266,-122 2419.5266,-86 2526.4734,-86 2526.4734,-122"/>
<text text-anchor="middle" x="2473" y="-99.8" font-family="Times,serif" font-size="14.00" fill="#000000">BrowserModule</text>
</g>
<!-- BrowserModule&#45;&gt;AppModule -->
<g id="edge4" class="edge">
<title>BrowserModule&#45;&gt;AppModule</title>
<path fill="none" stroke="#000000" d="M2473,-122.1061C2473,-141.3391 2473,-169 2473,-169 2473,-169 1901.8442,-169 1901.8442,-169"/>
<polygon fill="#000000" stroke="#000000" points="1901.8442,-165.5001 1891.8442,-169 1901.8441,-172.5001 1901.8442,-165.5001"/>
</g>
<!-- AppRoutingModule -->
<g id="node6" class="node">
<title>AppRoutingModule</title>
<polygon fill="#8dd3c7" stroke="#000000" points="2401.2744,-122 2398.2744,-126 2377.2744,-126 2374.2744,-122 2272.7256,-122 2272.7256,-86 2401.2744,-86 2401.2744,-122"/>
<text text-anchor="middle" x="2337" y="-99.8" font-family="Times,serif" font-size="14.00" fill="#000000">AppRoutingModule</text>
</g>
<!-- AppRoutingModule&#45;&gt;AppModule -->
<g id="edge5" class="edge">
<title>AppRoutingModule&#45;&gt;AppModule</title>
<path fill="none" stroke="#000000" d="M2337,-122.302C2337,-140.2699 2337,-165 2337,-165 2337,-165 1901.9428,-165 1901.9428,-165"/>
<polygon fill="#000000" stroke="#000000" points="1901.9429,-161.5001 1891.9428,-165 1901.9428,-168.5001 1901.9429,-161.5001"/>
</g>
<!-- BrowserAnimationsModule -->
<g id="node7" class="node">
<title>BrowserAnimationsModule</title>
<polygon fill="#8dd3c7" stroke="#000000" points="2254.3019,-122 2251.3019,-126 2230.3019,-126 2227.3019,-122 2081.6981,-122 2081.6981,-86 2254.3019,-86 2254.3019,-122"/>
<text text-anchor="middle" x="2168" y="-99.8" font-family="Times,serif" font-size="14.00" fill="#000000">BrowserAnimationsModule</text>
</g>
<!-- BrowserAnimationsModule&#45;&gt;AppModule -->
<g id="edge6" class="edge">
<title>BrowserAnimationsModule&#45;&gt;AppModule</title>
<path fill="none" stroke="#000000" d="M2168,-122.027C2168,-138.3976 2168,-160 2168,-160 2168,-160 1901.8999,-160 1901.8999,-160"/>
<polygon fill="#000000" stroke="#000000" points="1901.9,-156.5001 1891.8999,-160 1901.8999,-163.5001 1901.9,-156.5001"/>
</g>
<!-- NgbModule -->
<g id="node8" class="node">
<title>NgbModule</title>
<polygon fill="#8dd3c7" stroke="#000000" points="2063.6571,-122 2060.6571,-126 2039.6571,-126 2036.6571,-122 1980.3429,-122 1980.3429,-86 2063.6571,-86 2063.6571,-122"/>
<text text-anchor="middle" x="2022" y="-99.8" font-family="Times,serif" font-size="14.00" fill="#000000">NgbModule</text>
</g>
<!-- NgbModule&#45;&gt;AppModule -->
<g id="edge7" class="edge">
<title>NgbModule&#45;&gt;AppModule</title>
<path fill="none" stroke="#000000" d="M2022,-122.1871C2022,-137.1824 2022,-156 2022,-156 2022,-156 1902.0759,-156 1902.0759,-156"/>
<polygon fill="#000000" stroke="#000000" points="1902.076,-152.5001 1892.0759,-156 1902.0759,-159.5001 1902.076,-152.5001"/>
</g>
<!-- MaterialModule -->
<g id="node9" class="node">
<title>MaterialModule</title>
<polygon fill="#8dd3c7" stroke="#000000" points="1962.4706,-122 1959.4706,-126 1938.4706,-126 1935.4706,-122 1855.5294,-122 1855.5294,-86 1962.4706,-86 1962.4706,-122"/>
<text text-anchor="middle" x="1909" y="-99.8" font-family="Times,serif" font-size="14.00" fill="#000000">MaterialModule</text>
</g>
<!-- MaterialModule&#45;&gt;AppModule -->
<g id="edge8" class="edge">
<title>MaterialModule&#45;&gt;AppModule</title>
<path fill="none" stroke="#000000" d="M1873.6715,-122.1061C1873.6715,-122.1061 1873.6715,-140.991 1873.6715,-140.991"/>
<polygon fill="#000000" stroke="#000000" points="1870.1715,-140.9909 1873.6715,-150.991 1877.1715,-140.991 1870.1715,-140.9909"/>
</g>
<!-- HomeModule -->
<g id="node10" class="node">
<title>HomeModule</title>
<polygon fill="#8dd3c7" stroke="#000000" points="1837.7619,-122 1834.7619,-126 1813.7619,-126 1810.7619,-122 1744.2381,-122 1744.2381,-86 1837.7619,-86 1837.7619,-122"/>
<text text-anchor="middle" x="1791" y="-99.8" font-family="Times,serif" font-size="14.00" fill="#000000">HomeModule</text>
</g>
<!-- HomeModule&#45;&gt;AppModule -->
<g id="edge9" class="edge">
<title>HomeModule&#45;&gt;AppModule</title>
<path fill="none" stroke="#000000" d="M1823.0263,-122.1061C1823.0263,-122.1061 1823.0263,-140.991 1823.0263,-140.991"/>
<polygon fill="#000000" stroke="#000000" points="1819.5264,-140.9909 1823.0263,-150.991 1826.5264,-140.991 1819.5264,-140.9909"/>
</g>
<!-- DashboardModule -->
<g id="node11" class="node">
<title>DashboardModule</title>
<polygon fill="#8dd3c7" stroke="#000000" points="1726.191,-122 1723.191,-126 1702.191,-126 1699.191,-122 1605.809,-122 1605.809,-86 1726.191,-86 1726.191,-122"/>
<text text-anchor="middle" x="1666" y="-99.8" font-family="Times,serif" font-size="14.00" fill="#000000">DashboardModule</text>
</g>
<!-- DashboardModule&#45;&gt;AppModule -->
<g id="edge10" class="edge">
<title>DashboardModule&#45;&gt;AppModule</title>
<path fill="none" stroke="#000000" d="M1666,-122.1871C1666,-137.1824 1666,-156 1666,-156 1666,-156 1798.2476,-156 1798.2476,-156"/>
<polygon fill="#000000" stroke="#000000" points="1798.2476,-159.5001 1808.2476,-156 1798.2475,-152.5001 1798.2476,-159.5001"/>
</g>
<!-- Angular2PromiseButtonModule.forRoot() -->
<g id="node12" class="node">
<title>Angular2PromiseButtonModule.forRoot()</title>
<polygon fill="#8dd3c7" stroke="#000000" points="1588.2933,-122 1585.2933,-126 1564.2933,-126 1561.2933,-122 1335.7067,-122 1335.7067,-86 1588.2933,-86 1588.2933,-122"/>
<text text-anchor="middle" x="1462" y="-99.8" font-family="Times,serif" font-size="14.00" fill="#000000">Angular2PromiseButtonModule.forRoot()</text>
</g>
<!-- Angular2PromiseButtonModule.forRoot()&#45;&gt;AppModule -->
<g id="edge11" class="edge">
<title>Angular2PromiseButtonModule.forRoot()&#45;&gt;AppModule</title>
<path fill="none" stroke="#000000" d="M1462,-122.027C1462,-138.3976 1462,-160 1462,-160 1462,-160 1798.1086,-160 1798.1086,-160"/>
<polygon fill="#000000" stroke="#000000" points="1798.1086,-163.5001 1808.1086,-160 1798.1085,-156.5001 1798.1086,-163.5001"/>
</g>
<!-- SimpleNotificationsModule.forRoot(args) -->
<g id="node13" class="node">
<title>SimpleNotificationsModule.forRoot(args)</title>
<polygon fill="#8dd3c7" stroke="#000000" points="1318.0022,-122 1315.0022,-126 1294.0022,-126 1291.0022,-122 1065.9978,-122 1065.9978,-86 1318.0022,-86 1318.0022,-122"/>
<text text-anchor="middle" x="1192" y="-99.8" font-family="Times,serif" font-size="14.00" fill="#000000">SimpleNotificationsModule.forRoot(args)</text>
</g>
<!-- SimpleNotificationsModule.forRoot(args)&#45;&gt;AppModule -->
<g id="edge12" class="edge">
<title>SimpleNotificationsModule.forRoot(args)&#45;&gt;AppModule</title>
<path fill="none" stroke="#000000" d="M1192,-122.302C1192,-140.2699 1192,-165 1192,-165 1192,-165 1798.34,-165 1798.34,-165"/>
<polygon fill="#000000" stroke="#000000" points="1798.34,-168.5001 1808.34,-165 1798.3399,-161.5001 1798.34,-168.5001"/>
</g>
<!-- JwtModule.forRoot(args) -->
<g id="node14" class="node">
<title>JwtModule.forRoot(args)</title>
<polygon fill="#8dd3c7" stroke="#000000" points="1048.1813,-122 1045.1813,-126 1024.1813,-126 1021.1813,-122 889.8187,-122 889.8187,-86 1048.1813,-86 1048.1813,-122"/>
<text text-anchor="middle" x="969" y="-99.8" font-family="Times,serif" font-size="14.00" fill="#000000">JwtModule.forRoot(args)</text>
</g>
<!-- JwtModule.forRoot(args)&#45;&gt;AppModule -->
<g id="edge13" class="edge">
<title>JwtModule.forRoot(args)&#45;&gt;AppModule</title>
<path fill="none" stroke="#000000" d="M969,-122.1061C969,-141.3391 969,-169 969,-169 969,-169 1798.1002,-169 1798.1002,-169"/>
<polygon fill="#000000" stroke="#000000" points="1798.1003,-172.5001 1808.1002,-169 1798.1002,-165.5001 1798.1003,-172.5001"/>
</g>
<!-- AuthService -->
<g id="node16" class="node">
<title>AuthService</title>
<ellipse fill="#fdb462" stroke="#000000" cx="807" cy="-104" rx="59.1083" ry="18"/>
<text text-anchor="middle" x="807" y="-99.8" font-family="Times,serif" font-size="14.00" fill="#000000">AuthService</text>
</g>
<!-- AuthService&#45;&gt;AppModule -->
<g id="edge15" class="edge">
<title>AuthService&#45;&gt;AppModule</title>
<path fill="none" stroke="#000000" d="M807,-122.0267C807,-142.7672 807,-174 807,-174 807,-174 1798.146,-174 1798.146,-174"/>
<polygon fill="#000000" stroke="#000000" points="1798.1461,-177.5001 1808.146,-174 1798.146,-170.5001 1798.1461,-177.5001"/>
</g>
<!-- AuthGuard -->
<g id="node17" class="node">
<title>AuthGuard</title>
<ellipse fill="#fdb462" stroke="#000000" cx="675" cy="-104" rx="54.4566" ry="18"/>
<text text-anchor="middle" x="675" y="-99.8" font-family="Times,serif" font-size="14.00" fill="#000000">AuthGuard</text>
</g>
<!-- AuthGuard&#45;&gt;AppModule -->
<g id="edge16" class="edge">
<title>AuthGuard&#45;&gt;AppModule</title>
<path fill="none" stroke="#000000" d="M675,-122.2921C675,-144.2057 675,-178 675,-178 675,-178 1798.1811,-178 1798.1811,-178"/>
<polygon fill="#000000" stroke="#000000" points="1798.1812,-181.5001 1808.1811,-178 1798.1811,-174.5001 1798.1812,-181.5001"/>
</g>
<!-- { provide: HTTP_INTERCEPTORS, useClass: JwtInterceptor, multi: &#160;} -->
<g id="node18" class="node">
<title>{ provide: HTTP_INTERCEPTORS, useClass: JwtInterceptor, multi: &#160;}</title>
<ellipse fill="#fdb462" stroke="#000000" cx="313" cy="-104" rx="289.1299" ry="18"/>
<text text-anchor="middle" x="313" y="-99.8" font-family="Times,serif" font-size="14.00" fill="#000000">{ provide: HTTP_INTERCEPTORS, useClass: JwtInterceptor, multi: &#160;}</text>
</g>
<!-- { provide: HTTP_INTERCEPTORS, useClass: JwtInterceptor, multi: &#160;}&#45;&gt;AppModule -->
<g id="edge17" class="edge">
<title>{ provide: HTTP_INTERCEPTORS, useClass: JwtInterceptor, multi: &#160;}&#45;&gt;AppModule</title>
<path fill="none" stroke="#000000" d="M313,-122.3228C313,-145.6602 313,-183 313,-183 313,-183 1798.0918,-183 1798.0918,-183"/>
<polygon fill="#000000" stroke="#000000" points="1798.0919,-186.5001 1808.0918,-183 1798.0918,-179.5001 1798.0919,-186.5001"/>
</g>
</g>
</svg>
