<?xml version="1.0" encoding="UTF-8" standalone="no"?>
<!DOCTYPE svg PUBLIC "-//W3C//DTD SVG 1.1//EN"
 "http://www.w3.org/Graphics/SVG/1.1/DTD/svg11.dtd">
<!-- Generated by graphviz version 2.40.1 (20161225.0304)
 -->
<!-- Title: dependencies Pages: 1 -->
<svg width="5570pt" height="211pt"
 viewBox="0.00 0.00 5570.00 211.00" xmlns="http://www.w3.org/2000/svg" xmlns:xlink="http://www.w3.org/1999/xlink">
<g id="graph0" class="graph" transform="scale(1 1) rotate(0) translate(4 207)">
<title>dependencies</title>
<polygon fill="#ffffff" stroke="transparent" points="-4,4 -4,-207 5566,-207 5566,4 -4,4"/>
<text text-anchor="start" x="2760.0091" y="-42.4" font-family="sans-serif" font-weight="bold" font-size="14.00" fill="#000000">Legend</text>
<polygon fill="#ffffb3" stroke="transparent" points="2547,-10 2547,-30 2567,-30 2567,-10 2547,-10"/>
<text text-anchor="start" x="2570.629" y="-15.4" font-family="sans-serif" font-size="14.00" fill="#000000"> &#160;Declarations</text>
<polygon fill="#8dd3c7" stroke="transparent" points="2660,-10 2660,-30 2680,-30 2680,-10 2660,-10"/>
<text text-anchor="start" x="2683.7251" y="-15.4" font-family="sans-serif" font-size="14.00" fill="#000000"> &#160;Module</text>
<polygon fill="#80b1d3" stroke="transparent" points="2746,-10 2746,-30 2766,-30 2766,-10 2746,-10"/>
<text text-anchor="start" x="2769.7812" y="-15.4" font-family="sans-serif" font-size="14.00" fill="#000000"> &#160;Bootstrap</text>
<polygon fill="#fdb462" stroke="transparent" points="2843,-10 2843,-30 2863,-30 2863,-10 2843,-10"/>
<text text-anchor="start" x="2866.6732" y="-15.4" font-family="sans-serif" font-size="14.00" fill="#000000"> &#160;Providers</text>
<polygon fill="#fb8072" stroke="transparent" points="2939,-10 2939,-30 2959,-30 2959,-10 2939,-10"/>
<text text-anchor="start" x="2962.7258" y="-15.4" font-family="sans-serif" font-size="14.00" fill="#000000"> &#160;Exports</text>
<g id="clust1" class="cluster">
<title>cluster_MaterialModule</title>
<polygon fill="none" stroke="#000000" stroke-dasharray="1,5" points="8,-70 8,-195 5554,-195 5554,-70 8,-70"/>
</g>
<g id="clust4" class="cluster">
<title>cluster_MaterialModule_exports</title>
<polygon fill="none" stroke="#000000" points="16,-135 16,-187 5546,-187 5546,-135 16,-135"/>
</g>
<!-- MatAutocompleteModule  -->
<g id="node1" class="node">
<title>MatAutocompleteModule </title>
<polygon fill="#fb8072" stroke="#000000" points="5538.4124,-179 5373.5876,-179 5373.5876,-143 5538.4124,-143 5538.4124,-179"/>
<text text-anchor="middle" x="5456" y="-156.8" font-family="Times,serif" font-size="14.00" fill="#000000">MatAutocompleteModule </text>
</g>
<!-- MatBadgeModule  -->
<g id="node2" class="node">
<title>MatBadgeModule </title>
<polygon fill="#fb8072" stroke="#000000" points="5355.866,-179 5234.134,-179 5234.134,-143 5355.866,-143 5355.866,-179"/>
<text text-anchor="middle" x="5295" y="-156.8" font-family="Times,serif" font-size="14.00" fill="#000000">MatBadgeModule </text>
</g>
<!-- MatBottomSheetModule  -->
<g id="node3" class="node">
<title>MatBottomSheetModule </title>
<polygon fill="#fb8072" stroke="#000000" points="5216.2107,-179 5057.7893,-179 5057.7893,-143 5216.2107,-143 5216.2107,-179"/>
<text text-anchor="middle" x="5137" y="-156.8" font-family="Times,serif" font-size="14.00" fill="#000000">MatBottomSheetModule </text>
</g>
<!-- MatButtonModule  -->
<g id="node4" class="node">
<title>MatButtonModule </title>
<polygon fill="#fb8072" stroke="#000000" points="5039.7177,-179 4916.2823,-179 4916.2823,-143 5039.7177,-143 5039.7177,-179"/>
<text text-anchor="middle" x="4978" y="-156.8" font-family="Times,serif" font-size="14.00" fill="#000000">MatButtonModule </text>
</g>
<!-- MatFormFieldModule  -->
<g id="node5" class="node">
<title>MatFormFieldModule </title>
<polygon fill="#fb8072" stroke="#000000" points="4898.2121,-179 4753.7879,-179 4753.7879,-143 4898.2121,-143 4898.2121,-179"/>
<text text-anchor="middle" x="4826" y="-156.8" font-family="Times,serif" font-size="14.00" fill="#000000">MatFormFieldModule </text>
</g>
<!-- MatButtonToggleModule  -->
<g id="node6" class="node">
<title>MatButtonToggleModule </title>
<polygon fill="#fb8072" stroke="#000000" points="4735.8756,-179 4572.1244,-179 4572.1244,-143 4735.8756,-143 4735.8756,-179"/>
<text text-anchor="middle" x="4654" y="-156.8" font-family="Times,serif" font-size="14.00" fill="#000000">MatButtonToggleModule </text>
</g>
<!-- MatCardModule  -->
<g id="node7" class="node">
<title>MatCardModule </title>
<polygon fill="#fb8072" stroke="#000000" points="4554.3116,-179 4441.6884,-179 4441.6884,-143 4554.3116,-143 4554.3116,-179"/>
<text text-anchor="middle" x="4498" y="-156.8" font-family="Times,serif" font-size="14.00" fill="#000000">MatCardModule </text>
</g>
<!-- MatCheckboxModule  -->
<g id="node8" class="node">
<title>MatCheckboxModule </title>
<polygon fill="#fb8072" stroke="#000000" points="4423.3659,-179 4280.6341,-179 4280.6341,-143 4423.3659,-143 4423.3659,-179"/>
<text text-anchor="middle" x="4352" y="-156.8" font-family="Times,serif" font-size="14.00" fill="#000000">MatCheckboxModule </text>
</g>
<!-- MatChipsModule  -->
<g id="node9" class="node">
<title>MatChipsModule </title>
<polygon fill="#fb8072" stroke="#000000" points="4263.2717,-179 4144.7283,-179 4144.7283,-143 4263.2717,-143 4263.2717,-179"/>
<text text-anchor="middle" x="4204" y="-156.8" font-family="Times,serif" font-size="14.00" fill="#000000">MatChipsModule </text>
</g>
<!-- MatDatepickerModule  -->
<g id="node10" class="node">
<title>MatDatepickerModule </title>
<polygon fill="#fb8072" stroke="#000000" points="4126.5064,-179 3979.4936,-179 3979.4936,-143 4126.5064,-143 4126.5064,-179"/>
<text text-anchor="middle" x="4053" y="-156.8" font-family="Times,serif" font-size="14.00" fill="#000000">MatDatepickerModule </text>
</g>
<!-- MatDialogModule  -->
<g id="node11" class="node">
<title>MatDialogModule </title>
<polygon fill="#fb8072" stroke="#000000" points="3961.7024,-179 3838.2976,-179 3838.2976,-143 3961.7024,-143 3961.7024,-179"/>
<text text-anchor="middle" x="3900" y="-156.8" font-family="Times,serif" font-size="14.00" fill="#000000">MatDialogModule </text>
</g>
<!-- MatDividerModule  -->
<g id="node12" class="node">
<title>MatDividerModule </title>
<polygon fill="#fb8072" stroke="#000000" points="3820.3631,-179 3691.6369,-179 3691.6369,-143 3820.3631,-143 3820.3631,-179"/>
<text text-anchor="middle" x="3756" y="-156.8" font-family="Times,serif" font-size="14.00" fill="#000000">MatDividerModule </text>
</g>
<!-- MatExpansionModule  -->
<g id="node13" class="node">
<title>MatExpansionModule </title>
<polygon fill="#fb8072" stroke="#000000" points="3673.2023,-179 3528.7977,-179 3528.7977,-143 3673.2023,-143 3673.2023,-179"/>
<text text-anchor="middle" x="3601" y="-156.8" font-family="Times,serif" font-size="14.00" fill="#000000">MatExpansionModule </text>
</g>
<!-- MatGridListModule  -->
<g id="node14" class="node">
<title>MatGridListModule </title>
<polygon fill="#fb8072" stroke="#000000" points="3510.5358,-179 3377.4642,-179 3377.4642,-143 3510.5358,-143 3510.5358,-179"/>
<text text-anchor="middle" x="3444" y="-156.8" font-family="Times,serif" font-size="14.00" fill="#000000">MatGridListModule </text>
</g>
<!-- MatIconModule  -->
<g id="node15" class="node">
<title>MatIconModule </title>
<polygon fill="#fb8072" stroke="#000000" points="3359.4758,-179 3248.5242,-179 3248.5242,-143 3359.4758,-143 3359.4758,-179"/>
<text text-anchor="middle" x="3304" y="-156.8" font-family="Times,serif" font-size="14.00" fill="#000000">MatIconModule </text>
</g>
<!-- MatInputModule  -->
<g id="node16" class="node">
<title>MatInputModule </title>
<polygon fill="#fb8072" stroke="#000000" points="3230.6509,-179 3115.3491,-179 3115.3491,-143 3230.6509,-143 3230.6509,-179"/>
<text text-anchor="middle" x="3173" y="-156.8" font-family="Times,serif" font-size="14.00" fill="#000000">MatInputModule </text>
</g>
<!-- MatListModule  -->
<g id="node17" class="node">
<title>MatListModule </title>
<polygon fill="#fb8072" stroke="#000000" points="3097.8787,-179 2990.1213,-179 2990.1213,-143 3097.8787,-143 3097.8787,-179"/>
<text text-anchor="middle" x="3044" y="-156.8" font-family="Times,serif" font-size="14.00" fill="#000000">MatListModule </text>
</g>
<!-- MatMenuModule  -->
<g id="node18" class="node">
<title>MatMenuModule </title>
<polygon fill="#fb8072" stroke="#000000" points="2972.2591,-179 2853.7409,-179 2853.7409,-143 2972.2591,-143 2972.2591,-179"/>
<text text-anchor="middle" x="2913" y="-156.8" font-family="Times,serif" font-size="14.00" fill="#000000">MatMenuModule </text>
</g>
<!-- MatNativeDateModule  -->
<g id="node19" class="node">
<title>MatNativeDateModule </title>
<polygon fill="#fb8072" stroke="#000000" points="2835.8434,-179 2686.1566,-179 2686.1566,-143 2835.8434,-143 2835.8434,-179"/>
<text text-anchor="middle" x="2761" y="-156.8" font-family="Times,serif" font-size="14.00" fill="#000000">MatNativeDateModule </text>
</g>
<!-- MatPaginatorModule  -->
<g id="node20" class="node">
<title>MatPaginatorModule </title>
<polygon fill="#fb8072" stroke="#000000" points="2668.7534,-179 2529.2466,-179 2529.2466,-143 2668.7534,-143 2668.7534,-179"/>
<text text-anchor="middle" x="2599" y="-156.8" font-family="Times,serif" font-size="14.00" fill="#000000">MatPaginatorModule </text>
</g>
<!-- MatProgressBarModule  -->
<g id="node21" class="node">
<title>MatProgressBarModule </title>
<polygon fill="#fb8072" stroke="#000000" points="2511.019,-179 2356.981,-179 2356.981,-143 2511.019,-143 2511.019,-179"/>
<text text-anchor="middle" x="2434" y="-156.8" font-family="Times,serif" font-size="14.00" fill="#000000">MatProgressBarModule </text>
</g>
<!-- MatProgressSpinnerModule  -->
<g id="node22" class="node">
<title>MatProgressSpinnerModule </title>
<polygon fill="#fb8072" stroke="#000000" points="2338.856,-179 2161.144,-179 2161.144,-143 2338.856,-143 2338.856,-179"/>
<text text-anchor="middle" x="2250" y="-156.8" font-family="Times,serif" font-size="14.00" fill="#000000">MatProgressSpinnerModule </text>
</g>
<!-- MatRadioModule  -->
<g id="node23" class="node">
<title>MatRadioModule </title>
<polygon fill="#fb8072" stroke="#000000" points="2143.5414,-179 2024.4586,-179 2024.4586,-143 2143.5414,-143 2143.5414,-179"/>
<text text-anchor="middle" x="2084" y="-156.8" font-family="Times,serif" font-size="14.00" fill="#000000">MatRadioModule </text>
</g>
<!-- MatRippleModule  -->
<g id="node24" class="node">
<title>MatRippleModule </title>
<polygon fill="#fb8072" stroke="#000000" points="2006.432,-179 1883.568,-179 1883.568,-143 2006.432,-143 2006.432,-179"/>
<text text-anchor="middle" x="1945" y="-156.8" font-family="Times,serif" font-size="14.00" fill="#000000">MatRippleModule </text>
</g>
<!-- MatSelectModule  -->
<g id="node25" class="node">
<title>MatSelectModule </title>
<polygon fill="#fb8072" stroke="#000000" points="1865.8074,-179 1746.1926,-179 1746.1926,-143 1865.8074,-143 1865.8074,-179"/>
<text text-anchor="middle" x="1806" y="-156.8" font-family="Times,serif" font-size="14.00" fill="#000000">MatSelectModule </text>
</g>
<!-- MatSidenavModule  -->
<g id="node26" class="node">
<title>MatSidenavModule </title>
<polygon fill="#fb8072" stroke="#000000" points="1728.2023,-179 1597.7977,-179 1597.7977,-143 1728.2023,-143 1728.2023,-179"/>
<text text-anchor="middle" x="1663" y="-156.8" font-family="Times,serif" font-size="14.00" fill="#000000">MatSidenavModule </text>
</g>
<!-- MatSliderModule  -->
<g id="node27" class="node">
<title>MatSliderModule </title>
<polygon fill="#fb8072" stroke="#000000" points="1579.5386,-179 1460.4614,-179 1460.4614,-143 1579.5386,-143 1579.5386,-179"/>
<text text-anchor="middle" x="1520" y="-156.8" font-family="Times,serif" font-size="14.00" fill="#000000">MatSliderModule </text>
</g>
<!-- MatSlideToggleModule  -->
<g id="node28" class="node">
<title>MatSlideToggleModule </title>
<polygon fill="#fb8072" stroke="#000000" points="1442.0358,-179 1287.9642,-179 1287.9642,-143 1442.0358,-143 1442.0358,-179"/>
<text text-anchor="middle" x="1365" y="-156.8" font-family="Times,serif" font-size="14.00" fill="#000000">MatSlideToggleModule </text>
</g>
<!-- MatSnackBarModule  -->
<g id="node29" class="node">
<title>MatSnackBarModule </title>
<polygon fill="#fb8072" stroke="#000000" points="1270.0232,-179 1129.9768,-179 1129.9768,-143 1270.0232,-143 1270.0232,-179"/>
<text text-anchor="middle" x="1200" y="-156.8" font-family="Times,serif" font-size="14.00" fill="#000000">MatSnackBarModule </text>
</g>
<!-- MatSortModule  -->
<g id="node30" class="node">
<title>MatSortModule </title>
<polygon fill="#fb8072" stroke="#000000" points="1112.4334,-179 1003.5666,-179 1003.5666,-143 1112.4334,-143 1112.4334,-179"/>
<text text-anchor="middle" x="1058" y="-156.8" font-family="Times,serif" font-size="14.00" fill="#000000">MatSortModule </text>
</g>
<!-- MatStepperModule  -->
<g id="node31" class="node">
<title>MatStepperModule </title>
<polygon fill="#fb8072" stroke="#000000" points="985.3631,-179 856.6369,-179 856.6369,-143 985.3631,-143 985.3631,-179"/>
<text text-anchor="middle" x="921" y="-156.8" font-family="Times,serif" font-size="14.00" fill="#000000">MatStepperModule </text>
</g>
<!-- MatTableModule  -->
<g id="node32" class="node">
<title>MatTableModule </title>
<polygon fill="#fb8072" stroke="#000000" points="838.973,-179 721.027,-179 721.027,-143 838.973,-143 838.973,-179"/>
<text text-anchor="middle" x="780" y="-156.8" font-family="Times,serif" font-size="14.00" fill="#000000">MatTableModule </text>
</g>
<!-- MatTabsModule  -->
<g id="node33" class="node">
<title>MatTabsModule </title>
<polygon fill="#fb8072" stroke="#000000" points="703.3116,-179 590.6884,-179 590.6884,-143 703.3116,-143 703.3116,-179"/>
<text text-anchor="middle" x="647" y="-156.8" font-family="Times,serif" font-size="14.00" fill="#000000">MatTabsModule </text>
</g>
<!-- MatToolbarModule  -->
<g id="node34" class="node">
<title>MatToolbarModule </title>
<polygon fill="#fb8072" stroke="#000000" points="572.918,-179 443.082,-179 443.082,-143 572.918,-143 572.918,-179"/>
<text text-anchor="middle" x="508" y="-156.8" font-family="Times,serif" font-size="14.00" fill="#000000">MatToolbarModule </text>
</g>
<!-- MatTooltipModule  -->
<g id="node35" class="node">
<title>MatTooltipModule </title>
<polygon fill="#fb8072" stroke="#000000" points="425.3241,-179 298.6759,-179 298.6759,-143 425.3241,-143 425.3241,-179"/>
<text text-anchor="middle" x="362" y="-156.8" font-family="Times,serif" font-size="14.00" fill="#000000">MatTooltipModule </text>
</g>
<!-- MatTreeModule  -->
<g id="node36" class="node">
<title>MatTreeModule </title>
<polygon fill="#fb8072" stroke="#000000" points="280.7423,-179 169.2577,-179 169.2577,-143 280.7423,-143 280.7423,-179"/>
<text text-anchor="middle" x="225" y="-156.8" font-family="Times,serif" font-size="14.00" fill="#000000">MatTreeModule </text>
</g>
<!-- FlexLayoutModule  -->
<g id="node37" class="node">
<title>FlexLayoutModule </title>
<polygon fill="#fb8072" stroke="#000000" points="151.596,-179 24.404,-179 24.404,-143 151.596,-143 151.596,-179"/>
<text text-anchor="middle" x="88" y="-156.8" font-family="Times,serif" font-size="14.00" fill="#000000">FlexLayoutModule </text>
</g>
<!-- MaterialModule -->
<g id="node38" class="node">
<title>MaterialModule</title>
<polygon fill="#8dd3c7" stroke="#000000" points="2814.4706,-114 2811.4706,-118 2790.4706,-118 2787.4706,-114 2707.5294,-114 2707.5294,-78 2814.4706,-78 2814.4706,-114"/>
<text text-anchor="middle" x="2761" y="-91.8" font-family="Times,serif" font-size="14.00" fill="#000000">MaterialModule</text>
</g>
<!-- MaterialModule&#45;&gt;MatAutocompleteModule  -->
<g id="edge1" class="edge">
<title>MaterialModule&#45;&gt;MatAutocompleteModule </title>
<path fill="none" stroke="#000000" stroke-dasharray="5,2" d="M2787.7427,-114.207C2787.7427,-119.5549 2787.7427,-124 2787.7427,-124 2787.7427,-124 5456,-124 5456,-124 5456,-124 5456,-132.9336 5456,-132.9336"/>
<polygon fill="#000000" stroke="#000000" points="5452.5001,-132.9335 5456,-142.9336 5459.5001,-132.9336 5452.5001,-132.9335"/>
</g>
<!-- MaterialModule&#45;&gt;MatBadgeModule  -->
<g id="edge2" class="edge">
<title>MaterialModule&#45;&gt;MatBadgeModule </title>
<path fill="none" stroke="#000000" stroke-dasharray="5,2" d="M2814.5109,-80C3180.0784,-80 5295,-80 5295,-80 5295,-80 5295,-132.6198 5295,-132.6198"/>
<polygon fill="#000000" stroke="#000000" points="5291.5001,-132.6198 5295,-142.6198 5298.5001,-132.6199 5291.5001,-132.6198"/>
</g>
<!-- MaterialModule&#45;&gt;MatBottomSheetModule  -->
<g id="edge3" class="edge">
<title>MaterialModule&#45;&gt;MatBottomSheetModule </title>
<path fill="none" stroke="#000000" stroke-dasharray="5,2" d="M2814.5225,-82C3166.6463,-82 5137,-82 5137,-82 5137,-82 5137,-132.6772 5137,-132.6772"/>
<polygon fill="#000000" stroke="#000000" points="5133.5001,-132.6772 5137,-142.6772 5140.5001,-132.6773 5133.5001,-132.6772"/>
</g>
<!-- MaterialModule&#45;&gt;MatButtonModule  -->
<g id="edge4" class="edge">
<title>MaterialModule&#45;&gt;MatButtonModule </title>
<path fill="none" stroke="#000000" stroke-dasharray="5,2" d="M2814.704,-84C3153.2759,-84 4978,-84 4978,-84 4978,-84 4978,-132.7521 4978,-132.7521"/>
<polygon fill="#000000" stroke="#000000" points="4974.5001,-132.752 4978,-142.7521 4981.5001,-132.7521 4974.5001,-132.752"/>
</g>
<!-- MaterialModule&#45;&gt;MatFormFieldModule  -->
<g id="edge5" class="edge">
<title>MaterialModule&#45;&gt;MatFormFieldModule </title>
<path fill="none" stroke="#000000" stroke-dasharray="5,2" d="M2814.6452,-86C3139.1635,-86 4826,-86 4826,-86 4826,-86 4826,-132.8446 4826,-132.8446"/>
<polygon fill="#000000" stroke="#000000" points="4822.5001,-132.8446 4826,-142.8446 4829.5001,-132.8446 4822.5001,-132.8446"/>
</g>
<!-- MaterialModule&#45;&gt;MatButtonToggleModule  -->
<g id="edge6" class="edge">
<title>MaterialModule&#45;&gt;MatButtonToggleModule </title>
<path fill="none" stroke="#000000" stroke-dasharray="5,2" d="M2814.6045,-88C3122.6659,-88 4654,-88 4654,-88 4654,-88 4654,-132.9551 4654,-132.9551"/>
<polygon fill="#000000" stroke="#000000" points="4650.5001,-132.955 4654,-142.9551 4657.5001,-132.9551 4650.5001,-132.955"/>
</g>
<!-- MaterialModule&#45;&gt;MatCardModule  -->
<g id="edge7" class="edge">
<title>MaterialModule&#45;&gt;MatCardModule </title>
<path fill="none" stroke="#000000" stroke-dasharray="5,2" d="M2814.8897,-90C3108.0766,-90 4498,-90 4498,-90 4498,-90 4498,-132.7157 4498,-132.7157"/>
<polygon fill="#000000" stroke="#000000" points="4494.5001,-132.7157 4498,-142.7157 4501.5001,-132.7158 4494.5001,-132.7157"/>
</g>
<!-- MaterialModule&#45;&gt;MatCheckboxModule  -->
<g id="edge8" class="edge">
<title>MaterialModule&#45;&gt;MatCheckboxModule </title>
<path fill="none" stroke="#000000" stroke-dasharray="5,2" d="M2814.8471,-92C3092.7643,-92 4352,-92 4352,-92 4352,-92 4352,-132.8711 4352,-132.8711"/>
<polygon fill="#000000" stroke="#000000" points="4348.5001,-132.871 4352,-142.8711 4355.5001,-132.8711 4348.5001,-132.871"/>
</g>
<!-- MaterialModule&#45;&gt;MatChipsModule  -->
<g id="edge9" class="edge">
<title>MaterialModule&#45;&gt;MatChipsModule </title>
<path fill="none" stroke="#000000" stroke-dasharray="5,2" d="M2814.5003,-94C3075.6513,-94 4204,-94 4204,-94 4204,-94 4204,-132.692 4204,-132.692"/>
<polygon fill="#000000" stroke="#000000" points="4200.5001,-132.6919 4204,-142.692 4207.5001,-132.692 4200.5001,-132.6919"/>
</g>
<!-- MaterialModule&#45;&gt;MatDatepickerModule  -->
<g id="edge10" class="edge">
<title>MaterialModule&#45;&gt;MatDatepickerModule </title>
<path fill="none" stroke="#000000" stroke-dasharray="5,2" d="M2814.8707,-96C3059.3916,-96 4053,-96 4053,-96 4053,-96 4053,-132.8939 4053,-132.8939"/>
<polygon fill="#000000" stroke="#000000" points="4049.5001,-132.8938 4053,-142.8939 4056.5001,-132.8939 4049.5001,-132.8938"/>
</g>
<!-- MaterialModule&#45;&gt;MatDialogModule  -->
<g id="edge11" class="edge">
<title>MaterialModule&#45;&gt;MatDialogModule </title>
<path fill="none" stroke="#000000" stroke-dasharray="5,2" d="M2814.7888,-98C3040.5597,-98 3900,-98 3900,-98 3900,-98 3900,-132.7778 3900,-132.7778"/>
<polygon fill="#000000" stroke="#000000" points="3896.5001,-132.7778 3900,-142.7778 3903.5001,-132.7778 3896.5001,-132.7778"/>
</g>
<!-- MaterialModule&#45;&gt;MatDividerModule  -->
<g id="edge12" class="edge">
<title>MaterialModule&#45;&gt;MatDividerModule </title>
<path fill="none" stroke="#000000" stroke-dasharray="5,2" d="M2814.4955,-100C3021.1672,-100 3756,-100 3756,-100 3756,-100 3756,-132.698 3756,-132.698"/>
<polygon fill="#000000" stroke="#000000" points="3752.5001,-132.698 3756,-142.698 3759.5001,-132.698 3752.5001,-132.698"/>
</g>
<!-- MaterialModule&#45;&gt;MatExpansionModule  -->
<g id="edge13" class="edge">
<title>MaterialModule&#45;&gt;MatExpansionModule </title>
<path fill="none" stroke="#000000" stroke-dasharray="5,2" d="M2814.5029,-102C2999.5265,-102 3601,-102 3601,-102 3601,-102 3601,-132.9775 3601,-132.9775"/>
<polygon fill="#000000" stroke="#000000" points="3597.5001,-132.9774 3601,-142.9775 3604.5001,-132.9775 3597.5001,-132.9774"/>
</g>
<!-- MaterialModule&#45;&gt;MatGridListModule  -->
<g id="edge14" class="edge">
<title>MaterialModule&#45;&gt;MatGridListModule </title>
<path fill="none" stroke="#000000" stroke-dasharray="5,2" d="M2814.5939,-104C2975.6047,-104 3444,-104 3444,-104 3444,-104 3444,-132.9648 3444,-132.9648"/>
<polygon fill="#000000" stroke="#000000" points="3440.5001,-132.9648 3444,-142.9648 3447.5001,-132.9649 3440.5001,-132.9648"/>
</g>
<!-- MaterialModule&#45;&gt;MatIconModule  -->
<g id="edge15" class="edge">
<title>MaterialModule&#45;&gt;MatIconModule </title>
<path fill="none" stroke="#000000" stroke-dasharray="5,2" d="M2814.551,-106C2951.5416,-106 3304,-106 3304,-106 3304,-106 3304,-132.9909 3304,-132.9909"/>
<polygon fill="#000000" stroke="#000000" points="3300.5001,-132.9909 3304,-142.9909 3307.5001,-132.991 3300.5001,-132.9909"/>
</g>
<!-- MaterialModule&#45;&gt;MatInputModule  -->
<g id="edge16" class="edge">
<title>MaterialModule&#45;&gt;MatInputModule </title>
<path fill="none" stroke="#000000" stroke-dasharray="5,2" d="M2814.8618,-108C2926.5393,-108 3173,-108 3173,-108 3173,-108 3173,-132.7604 3173,-132.7604"/>
<polygon fill="#000000" stroke="#000000" points="3169.5001,-132.7604 3173,-142.7604 3176.5001,-132.7604 3169.5001,-132.7604"/>
</g>
<!-- MaterialModule&#45;&gt;MatListModule  -->
<g id="edge17" class="edge">
<title>MaterialModule&#45;&gt;MatListModule </title>
<path fill="none" stroke="#000000" stroke-dasharray="5,2" d="M2814.5628,-110C2896.6075,-110 3044,-110 3044,-110 3044,-110 3044,-132.8757 3044,-132.8757"/>
<polygon fill="#000000" stroke="#000000" points="3040.5001,-132.8757 3044,-142.8757 3047.5001,-132.8757 3040.5001,-132.8757"/>
</g>
<!-- MaterialModule&#45;&gt;MatMenuModule  -->
<g id="edge18" class="edge">
<title>MaterialModule&#45;&gt;MatMenuModule </title>
<path fill="none" stroke="#000000" stroke-dasharray="5,2" d="M2814.5895,-112C2858.3512,-112 2913,-112 2913,-112 2913,-112 2913,-132.7542 2913,-132.7542"/>
<polygon fill="#000000" stroke="#000000" points="2909.5001,-132.7542 2913,-142.7542 2916.5001,-132.7542 2909.5001,-132.7542"/>
</g>
<!-- MaterialModule&#45;&gt;MatNativeDateModule  -->
<g id="edge19" class="edge">
<title>MaterialModule&#45;&gt;MatNativeDateModule </title>
<path fill="none" stroke="#000000" stroke-dasharray="5,2" d="M2761,-114.1061C2761,-114.1061 2761,-132.991 2761,-132.991"/>
<polygon fill="#000000" stroke="#000000" points="2757.5001,-132.9909 2761,-142.991 2764.5001,-132.991 2757.5001,-132.9909"/>
</g>
<!-- MaterialModule&#45;&gt;MatPaginatorModule  -->
<g id="edge20" class="edge">
<title>MaterialModule&#45;&gt;MatPaginatorModule </title>
<path fill="none" stroke="#000000" stroke-dasharray="5,2" d="M2707.5062,-112C2660.3192,-112 2599,-112 2599,-112 2599,-112 2599,-132.7542 2599,-132.7542"/>
<polygon fill="#000000" stroke="#000000" points="2595.5001,-132.7542 2599,-142.7542 2602.5001,-132.7542 2595.5001,-132.7542"/>
</g>
<!-- MaterialModule&#45;&gt;MatProgressBarModule  -->
<g id="edge21" class="edge">
<title>MaterialModule&#45;&gt;MatProgressBarModule </title>
<path fill="none" stroke="#000000" stroke-dasharray="5,2" d="M2707.3688,-110C2614.5998,-110 2434,-110 2434,-110 2434,-110 2434,-132.8757 2434,-132.8757"/>
<polygon fill="#000000" stroke="#000000" points="2430.5001,-132.8757 2434,-142.8757 2437.5001,-132.8757 2430.5001,-132.8757"/>
</g>
<!-- MaterialModule&#45;&gt;MatProgressSpinnerModule  -->
<g id="edge22" class="edge">
<title>MaterialModule&#45;&gt;MatProgressSpinnerModule </title>
<path fill="none" stroke="#000000" stroke-dasharray="5,2" d="M2707.2799,-108C2576.0826,-108 2250,-108 2250,-108 2250,-108 2250,-132.7604 2250,-132.7604"/>
<polygon fill="#000000" stroke="#000000" points="2246.5001,-132.7604 2250,-142.7604 2253.5001,-132.7604 2246.5001,-132.7604"/>
</g>
<!-- MaterialModule&#45;&gt;MatRadioModule  -->
<g id="edge23" class="edge">
<title>MaterialModule&#45;&gt;MatRadioModule </title>
<path fill="none" stroke="#000000" stroke-dasharray="5,2" d="M2707.3111,-106C2547.1862,-106 2084,-106 2084,-106 2084,-106 2084,-132.9909 2084,-132.9909"/>
<polygon fill="#000000" stroke="#000000" points="2080.5001,-132.9909 2084,-142.9909 2087.5001,-132.991 2080.5001,-132.9909"/>
</g>
<!-- MaterialModule&#45;&gt;MatRippleModule  -->
<g id="edge24" class="edge">
<title>MaterialModule&#45;&gt;MatRippleModule </title>
<path fill="none" stroke="#000000" stroke-dasharray="5,2" d="M2707.46,-104C2525.9219,-104 1945,-104 1945,-104 1945,-104 1945,-132.9648 1945,-132.9648"/>
<polygon fill="#000000" stroke="#000000" points="1941.5001,-132.9648 1945,-142.9648 1948.5001,-132.9649 1941.5001,-132.9648"/>
</g>
<!-- MaterialModule&#45;&gt;MatSelectModule  -->
<g id="edge25" class="edge">
<title>MaterialModule&#45;&gt;MatSelectModule </title>
<path fill="none" stroke="#000000" stroke-dasharray="5,2" d="M2707.2642,-102C2505.6926,-102 1806,-102 1806,-102 1806,-102 1806,-132.9775 1806,-132.9775"/>
<polygon fill="#000000" stroke="#000000" points="1802.5001,-132.9774 1806,-142.9775 1809.5001,-132.9775 1802.5001,-132.9774"/>
</g>
<!-- MaterialModule&#45;&gt;MatSidenavModule  -->
<g id="edge26" class="edge">
<title>MaterialModule&#45;&gt;MatSidenavModule </title>
<path fill="none" stroke="#000000" stroke-dasharray="5,2" d="M2707.2979,-100C2486.8529,-100 1663,-100 1663,-100 1663,-100 1663,-132.698 1663,-132.698"/>
<polygon fill="#000000" stroke="#000000" points="1659.5001,-132.698 1663,-142.698 1666.5001,-132.698 1659.5001,-132.698"/>
</g>
<!-- MaterialModule&#45;&gt;MatSliderModule  -->
<g id="edge27" class="edge">
<title>MaterialModule&#45;&gt;MatSliderModule </title>
<path fill="none" stroke="#000000" stroke-dasharray="5,2" d="M2707.2775,-98C2469.0805,-98 1520,-98 1520,-98 1520,-98 1520,-132.7778 1520,-132.7778"/>
<polygon fill="#000000" stroke="#000000" points="1516.5001,-132.7778 1520,-142.7778 1523.5001,-132.7778 1516.5001,-132.7778"/>
</g>
<!-- MaterialModule&#45;&gt;MatSlideToggleModule  -->
<g id="edge28" class="edge">
<title>MaterialModule&#45;&gt;MatSlideToggleModule </title>
<path fill="none" stroke="#000000" stroke-dasharray="5,2" d="M2707.1305,-96C2450.5779,-96 1365,-96 1365,-96 1365,-96 1365,-132.8939 1365,-132.8939"/>
<polygon fill="#000000" stroke="#000000" points="1361.5001,-132.8938 1365,-142.8939 1368.5001,-132.8939 1361.5001,-132.8938"/>
</g>
<!-- MaterialModule&#45;&gt;MatSnackBarModule  -->
<g id="edge29" class="edge">
<title>MaterialModule&#45;&gt;MatSnackBarModule </title>
<path fill="none" stroke="#000000" stroke-dasharray="5,2" d="M2707.2668,-94C2432.7806,-94 1200,-94 1200,-94 1200,-94 1200,-132.692 1200,-132.692"/>
<polygon fill="#000000" stroke="#000000" points="1196.5001,-132.6919 1200,-142.692 1203.5001,-132.692 1196.5001,-132.6919"/>
</g>
<!-- MaterialModule&#45;&gt;MatSortModule  -->
<g id="edge30" class="edge">
<title>MaterialModule&#45;&gt;MatSortModule </title>
<path fill="none" stroke="#000000" stroke-dasharray="5,2" d="M2707.2199,-92C2417.7433,-92 1058,-92 1058,-92 1058,-92 1058,-132.8711 1058,-132.8711"/>
<polygon fill="#000000" stroke="#000000" points="1054.5001,-132.871 1058,-142.8711 1061.5001,-132.8711 1054.5001,-132.871"/>
</g>
<!-- MaterialModule&#45;&gt;MatStepperModule  -->
<g id="edge31" class="edge">
<title>MaterialModule&#45;&gt;MatStepperModule </title>
<path fill="none" stroke="#000000" stroke-dasharray="5,2" d="M2707.4238,-90C2404.6156,-90 921,-90 921,-90 921,-90 921,-132.7157 921,-132.7157"/>
<polygon fill="#000000" stroke="#000000" points="917.5001,-132.7157 921,-142.7157 924.5001,-132.7158 917.5001,-132.7157"/>
</g>
<!-- MaterialModule&#45;&gt;MatTableModule  -->
<g id="edge32" class="edge">
<title>MaterialModule&#45;&gt;MatTableModule </title>
<path fill="none" stroke="#000000" stroke-dasharray="5,2" d="M2707.5005,-88C2391.2331,-88 780,-88 780,-88 780,-88 780,-132.9551 780,-132.9551"/>
<polygon fill="#000000" stroke="#000000" points="776.5001,-132.955 780,-142.9551 783.5001,-132.9551 776.5001,-132.955"/>
</g>
<!-- MaterialModule&#45;&gt;MatTabsModule  -->
<g id="edge33" class="edge">
<title>MaterialModule&#45;&gt;MatTabsModule </title>
<path fill="none" stroke="#000000" stroke-dasharray="5,2" d="M2707.4204,-86C2378.531,-86 647,-86 647,-86 647,-86 647,-132.8446 647,-132.8446"/>
<polygon fill="#000000" stroke="#000000" points="643.5001,-132.8446 647,-142.8446 650.5001,-132.8446 643.5001,-132.8446"/>
</g>
<!-- MaterialModule&#45;&gt;MatToolbarModule  -->
<g id="edge34" class="edge">
<title>MaterialModule&#45;&gt;MatToolbarModule </title>
<path fill="none" stroke="#000000" stroke-dasharray="5,2" d="M2707.2543,-84C2365.3496,-84 508,-84 508,-84 508,-84 508,-132.7521 508,-132.7521"/>
<polygon fill="#000000" stroke="#000000" points="504.5001,-132.752 508,-142.7521 511.5001,-132.7521 504.5001,-132.752"/>
</g>
<!-- MaterialModule&#45;&gt;MatTooltipModule  -->
<g id="edge35" class="edge">
<title>MaterialModule&#45;&gt;MatTooltipModule </title>
<path fill="none" stroke="#000000" stroke-dasharray="5,2" d="M2707.245,-82C2352.4939,-82 362,-82 362,-82 362,-82 362,-132.6772 362,-132.6772"/>
<polygon fill="#000000" stroke="#000000" points="358.5001,-132.6772 362,-142.6772 365.5001,-132.6773 358.5001,-132.6772"/>
</g>
<!-- MaterialModule&#45;&gt;MatTreeModule  -->
<g id="edge36" class="edge">
<title>MaterialModule&#45;&gt;MatTreeModule </title>
<path fill="none" stroke="#000000" stroke-dasharray="5,2" d="M2707.4469,-80C2341.5909,-80 225,-80 225,-80 225,-80 225,-132.6198 225,-132.6198"/>
<polygon fill="#000000" stroke="#000000" points="221.5001,-132.6198 225,-142.6198 228.5001,-132.6199 221.5001,-132.6198"/>
</g>
<!-- MaterialModule&#45;&gt;FlexLayoutModule  -->
<g id="edge37" class="edge">
<title>MaterialModule&#45;&gt;FlexLayoutModule </title>
<path fill="none" stroke="#000000" stroke-dasharray="5,2" d="M2734.2574,-114.1097C2734.2574,-123.897 2734.2574,-134 2734.2574,-134 2734.2574,-134 88,-134 88,-134 88,-134 88,-134.8841 88,-134.8841"/>
<polygon fill="#000000" stroke="#000000" points="84.5001,-132.8408 88,-142.8408 91.5001,-132.8409 84.5001,-132.8408"/>
</g>
</g>
</svg>
