<?xml version="1.0" encoding="UTF-8" standalone="no"?>
<!DOCTYPE svg PUBLIC "-//W3C//DTD SVG 1.1//EN"
 "http://www.w3.org/Graphics/SVG/1.1/DTD/svg11.dtd">
<!-- Generated by graphviz version 2.40.1 (20161225.0304)
 -->
<!-- Title: dependencies Pages: 1 -->
<svg width="2352pt" height="276pt"
 viewBox="0.00 0.00 2352.00 276.00" xmlns="http://www.w3.org/2000/svg" xmlns:xlink="http://www.w3.org/1999/xlink">
<g id="graph0" class="graph" transform="scale(1 1) rotate(0) translate(4 272)">
<title>dependencies</title>
<polygon fill="#ffffff" stroke="transparent" points="-4,4 -4,-272 2348,-272 2348,4 -4,4"/>
<text text-anchor="start" x="1151.0091" y="-42.4" font-family="sans-serif" font-weight="bold" font-size="14.00" fill="#000000">Legend</text>
<polygon fill="#ffffb3" stroke="transparent" points="938,-10 938,-30 958,-30 958,-10 938,-10"/>
<text text-anchor="start" x="961.629" y="-15.4" font-family="sans-serif" font-size="14.00" fill="#000000"> &#160;Declarations</text>
<polygon fill="#8dd3c7" stroke="transparent" points="1051,-10 1051,-30 1071,-30 1071,-10 1051,-10"/>
<text text-anchor="start" x="1074.7251" y="-15.4" font-family="sans-serif" font-size="14.00" fill="#000000"> &#160;Module</text>
<polygon fill="#80b1d3" stroke="transparent" points="1137,-10 1137,-30 1157,-30 1157,-10 1137,-10"/>
<text text-anchor="start" x="1160.7812" y="-15.4" font-family="sans-serif" font-size="14.00" fill="#000000"> &#160;Bootstrap</text>
<polygon fill="#fdb462" stroke="transparent" points="1234,-10 1234,-30 1254,-30 1254,-10 1234,-10"/>
<text text-anchor="start" x="1257.6732" y="-15.4" font-family="sans-serif" font-size="14.00" fill="#000000"> &#160;Providers</text>
<polygon fill="#fb8072" stroke="transparent" points="1330,-10 1330,-30 1350,-30 1350,-10 1330,-10"/>
<text text-anchor="start" x="1353.7258" y="-15.4" font-family="sans-serif" font-size="14.00" fill="#000000"> &#160;Exports</text>
<g id="clust1" class="cluster">
<title>cluster_HomeModule</title>
<polygon fill="none" stroke="#000000" stroke-dasharray="1,5" points="8,-70 8,-260 2336,-260 2336,-70 8,-70"/>
</g>
<g id="clust2" class="cluster">
<title>cluster_HomeModule_declarations</title>
<polygon fill="none" stroke="#000000" points="1914,-143 1914,-195 2328,-195 2328,-143 1914,-143"/>
</g>
<g id="clust5" class="cluster">
<title>cluster_HomeModule_CadastroComponent_providers</title>
<polygon fill="none" stroke="#000000" points="371,-78 371,-130 2328,-130 2328,-78 371,-78"/>
</g>
<g id="clust6" class="cluster">
<title>cluster_HomeModule_imports</title>
<polygon fill="none" stroke="#000000" points="16,-143 16,-195 1906,-195 1906,-143 16,-143"/>
</g>
<!-- HomeComponent -->
<g id="node1" class="node">
<title>HomeComponent</title>
<polygon fill="#ffffb3" stroke="#000000" points="2319.5451,-187 2204.4549,-187 2204.4549,-151 2319.5451,-151 2319.5451,-187"/>
<text text-anchor="middle" x="2262" y="-164.8" font-family="Times,serif" font-size="14.00" fill="#000000">HomeComponent</text>
</g>
<!-- HomeModule -->
<g id="node4" class="node">
<title>HomeModule</title>
<polygon fill="#8dd3c7" stroke="#000000" points="1412.7619,-252 1409.7619,-256 1388.7619,-256 1385.7619,-252 1319.2381,-252 1319.2381,-216 1412.7619,-216 1412.7619,-252"/>
<text text-anchor="middle" x="1366" y="-229.8" font-family="Times,serif" font-size="14.00" fill="#000000">HomeModule</text>
</g>
<!-- HomeComponent&#45;&gt;HomeModule -->
<g id="edge1" class="edge">
<title>HomeComponent&#45;&gt;HomeModule</title>
<path fill="none" stroke="#000000" d="M2262,-187.0908C2262,-210.1328 2262,-247 2262,-247 2262,-247 1422.9113,-247 1422.9113,-247"/>
<polygon fill="#000000" stroke="#000000" points="1422.9113,-243.5001 1412.9113,-247 1422.9113,-250.5001 1422.9113,-243.5001"/>
</g>
<!-- LoginComponent -->
<g id="node2" class="node">
<title>LoginComponent</title>
<polygon fill="#ffffb3" stroke="#000000" points="2186.2758,-187 2071.7242,-187 2071.7242,-151 2186.2758,-151 2186.2758,-187"/>
<text text-anchor="middle" x="2129" y="-164.8" font-family="Times,serif" font-size="14.00" fill="#000000">LoginComponent</text>
</g>
<!-- LoginComponent&#45;&gt;HomeModule -->
<g id="edge2" class="edge">
<title>LoginComponent&#45;&gt;HomeModule</title>
<path fill="none" stroke="#000000" d="M2129,-187.0449C2129,-208.6623 2129,-242 2129,-242 2129,-242 1422.8665,-242 1422.8665,-242"/>
<polygon fill="#000000" stroke="#000000" points="1422.8665,-238.5001 1412.8665,-242 1422.8665,-245.5001 1422.8665,-238.5001"/>
</g>
<!-- CadastroComponent -->
<g id="node3" class="node">
<title>CadastroComponent</title>
<polygon fill="#ffffb3" stroke="#000000" points="2053.594,-187 1922.406,-187 1922.406,-151 2053.594,-151 2053.594,-187"/>
<text text-anchor="middle" x="1988" y="-164.8" font-family="Times,serif" font-size="14.00" fill="#000000">CadastroComponent</text>
</g>
<!-- CadastroComponent&#45;&gt;HomeModule -->
<g id="edge3" class="edge">
<title>CadastroComponent&#45;&gt;HomeModule</title>
<path fill="none" stroke="#000000" d="M1988,-187.2228C1988,-207.3652 1988,-237 1988,-237 1988,-237 1423.0061,-237 1423.0061,-237"/>
<polygon fill="#000000" stroke="#000000" points="1423.0061,-233.5001 1413.0061,-237 1423.006,-240.5001 1423.0061,-233.5001"/>
</g>
<!-- { provide: MAT_DATE_LOCALE, useValue: &#39;pt&#45;BR&#39; } -->
<g id="node5" class="node">
<title>{ provide: MAT_DATE_LOCALE, useValue: &#39;pt&#45;BR&#39; }</title>
<ellipse fill="#fdb462" stroke="#000000" cx="2089" cy="-104" rx="230.6125" ry="18"/>
<text text-anchor="middle" x="2089" y="-99.8" font-family="Times,serif" font-size="14.00" fill="#000000">{ provide: MAT_DATE_LOCALE, useValue: &#39;pt&#45;BR&#39; }</text>
</g>
<!-- { provide: MAT_DATE_LOCALE, useValue: &#39;pt&#45;BR&#39; }&#45;&gt;CadastroComponent -->
<g id="edge4" class="edge">
<title>{ provide: MAT_DATE_LOCALE, useValue: &#39;pt&#45;BR&#39; }&#45;&gt;CadastroComponent</title>
<path fill="none" stroke="#000000" d="M2020.7735,-121.4188C2020.7735,-121.4188 2020.7735,-140.6234 2020.7735,-140.6234"/>
<polygon fill="#000000" stroke="#000000" points="2017.2736,-140.6234 2020.7735,-150.6234 2024.2736,-140.6234 2017.2736,-140.6234"/>
</g>
<!-- { provide: DateAdapter, useClass: MomentDateAdapter, deps: [MAT_DATE_LOCALE] } -->
<g id="node6" class="node">
<title>{ provide: DateAdapter, useClass: MomentDateAdapter, deps: [MAT_DATE_LOCALE] }</title>
<ellipse fill="#fdb462" stroke="#000000" cx="1477" cy="-104" rx="363.6404" ry="18"/>
<text text-anchor="middle" x="1477" y="-99.8" font-family="Times,serif" font-size="14.00" fill="#000000">{ provide: DateAdapter, useClass: MomentDateAdapter, deps: [MAT_DATE_LOCALE] }</text>
</g>
<!-- { provide: DateAdapter, useClass: MomentDateAdapter, deps: [MAT_DATE_LOCALE] }&#45;&gt;CadastroComponent -->
<g id="edge5" class="edge">
<title>{ provide: DateAdapter, useClass: MomentDateAdapter, deps: [MAT_DATE_LOCALE] }&#45;&gt;CadastroComponent</title>
<path fill="none" stroke="#000000" d="M1813.4932,-111.0656C1813.4932,-119.3604 1813.4932,-132 1813.4932,-132 1813.4932,-132 1988,-132 1988,-132 1988,-132 1988,-140.9336 1988,-140.9336"/>
<polygon fill="#000000" stroke="#000000" points="1984.5001,-140.9335 1988,-150.9336 1991.5001,-140.9336 1984.5001,-140.9335"/>
</g>
<!-- { provide: MAT_DATE_FORMATS, useValue: MAT_MOMENT_DATE_FORMATS } -->
<g id="node7" class="node">
<title>{ provide: MAT_DATE_FORMATS, useValue: MAT_MOMENT_DATE_FORMATS }</title>
<ellipse fill="#fdb462" stroke="#000000" cx="737" cy="-104" rx="358.4712" ry="18"/>
<text text-anchor="middle" x="737" y="-99.8" font-family="Times,serif" font-size="14.00" fill="#000000">{ provide: MAT_DATE_FORMATS, useValue: MAT_MOMENT_DATE_FORMATS }</text>
</g>
<!-- { provide: MAT_DATE_FORMATS, useValue: MAT_MOMENT_DATE_FORMATS }&#45;&gt;CadastroComponent -->
<g id="edge6" class="edge">
<title>{ provide: MAT_DATE_FORMATS, useValue: MAT_MOMENT_DATE_FORMATS }&#45;&gt;CadastroComponent</title>
<path fill="none" stroke="#000000" d="M1082.5398,-108.9678C1082.5398,-119.2682 1082.5398,-142 1082.5398,-142 1082.5398,-142 1955.2265,-142 1955.2265,-142 1955.2265,-142 1955.2265,-142.8841 1955.2265,-142.8841"/>
<polygon fill="#000000" stroke="#000000" points="1951.7266,-140.8408 1955.2265,-150.8408 1958.7266,-140.8409 1951.7266,-140.8408"/>
</g>
<!-- CommonModule -->
<g id="node8" class="node">
<title>CommonModule</title>
<polygon fill="#8dd3c7" stroke="#000000" points="1897.6681,-187 1894.6681,-191 1873.6681,-191 1870.6681,-187 1786.3319,-187 1786.3319,-151 1897.6681,-151 1897.6681,-187"/>
<text text-anchor="middle" x="1842" y="-164.8" font-family="Times,serif" font-size="14.00" fill="#000000">CommonModule</text>
</g>
<!-- CommonModule&#45;&gt;HomeModule -->
<g id="edge7" class="edge">
<title>CommonModule&#45;&gt;HomeModule</title>
<path fill="none" stroke="#000000" d="M1842,-187.2222C1842,-205.8285 1842,-232 1842,-232 1842,-232 1422.9434,-232 1422.9434,-232"/>
<polygon fill="#000000" stroke="#000000" points="1422.9434,-228.5001 1412.9434,-232 1422.9434,-235.5001 1422.9434,-228.5001"/>
</g>
<!-- HttpClientModule -->
<g id="node9" class="node">
<title>HttpClientModule</title>
<polygon fill="#8dd3c7" stroke="#000000" points="1768.1611,-187 1765.1611,-191 1744.1611,-191 1741.1611,-187 1649.8389,-187 1649.8389,-151 1768.1611,-151 1768.1611,-187"/>
<text text-anchor="middle" x="1709" y="-164.8" font-family="Times,serif" font-size="14.00" fill="#000000">HttpClientModule</text>
</g>
<!-- HttpClientModule&#45;&gt;HomeModule -->
<g id="edge8" class="edge">
<title>HttpClientModule&#45;&gt;HomeModule</title>
<path fill="none" stroke="#000000" d="M1709,-187.0336C1709,-204.0597 1709,-227 1709,-227 1709,-227 1422.9735,-227 1422.9735,-227"/>
<polygon fill="#000000" stroke="#000000" points="1422.9735,-223.5001 1412.9735,-227 1422.9735,-230.5001 1422.9735,-223.5001"/>
</g>
<!-- FormsModule -->
<g id="node10" class="node">
<title>FormsModule</title>
<polygon fill="#8dd3c7" stroke="#000000" points="1631.8288,-187 1628.8288,-191 1607.8288,-191 1604.8288,-187 1536.1712,-187 1536.1712,-151 1631.8288,-151 1631.8288,-187"/>
<text text-anchor="middle" x="1584" y="-164.8" font-family="Times,serif" font-size="14.00" fill="#000000">FormsModule</text>
</g>
<!-- FormsModule&#45;&gt;HomeModule -->
<g id="edge9" class="edge">
<title>FormsModule&#45;&gt;HomeModule</title>
<path fill="none" stroke="#000000" d="M1584,-187.2396C1584,-202.5706 1584,-222 1584,-222 1584,-222 1422.7665,-222 1422.7665,-222"/>
<polygon fill="#000000" stroke="#000000" points="1422.7665,-218.5001 1412.7665,-222 1422.7664,-225.5001 1422.7665,-218.5001"/>
</g>
<!-- ReactiveFormsModule -->
<g id="node11" class="node">
<title>ReactiveFormsModule</title>
<polygon fill="#8dd3c7" stroke="#000000" points="1518.3047,-187 1515.3047,-191 1494.3047,-191 1491.3047,-187 1373.6953,-187 1373.6953,-151 1518.3047,-151 1518.3047,-187"/>
<text text-anchor="middle" x="1446" y="-164.8" font-family="Times,serif" font-size="14.00" fill="#000000">ReactiveFormsModule</text>
</g>
<!-- ReactiveFormsModule&#45;&gt;HomeModule -->
<g id="edge10" class="edge">
<title>ReactiveFormsModule&#45;&gt;HomeModule</title>
<path fill="none" stroke="#000000" d="M1393.3643,-187.1061C1393.3643,-187.1061 1393.3643,-205.991 1393.3643,-205.991"/>
<polygon fill="#000000" stroke="#000000" points="1389.8644,-205.9909 1393.3643,-215.991 1396.8644,-205.991 1389.8644,-205.9909"/>
</g>
<!-- HomeRoutingModule -->
<g id="node12" class="node">
<title>HomeRoutingModule</title>
<polygon fill="#8dd3c7" stroke="#000000" points="1355.3795,-187 1352.3795,-191 1331.3795,-191 1328.3795,-187 1216.6205,-187 1216.6205,-151 1355.3795,-151 1355.3795,-187"/>
<text text-anchor="middle" x="1286" y="-164.8" font-family="Times,serif" font-size="14.00" fill="#000000">HomeRoutingModule</text>
</g>
<!-- HomeRoutingModule&#45;&gt;HomeModule -->
<g id="edge11" class="edge">
<title>HomeRoutingModule&#45;&gt;HomeModule</title>
<path fill="none" stroke="#000000" d="M1337.2795,-187.1061C1337.2795,-187.1061 1337.2795,-205.991 1337.2795,-205.991"/>
<polygon fill="#000000" stroke="#000000" points="1333.7795,-205.9909 1337.2795,-215.991 1340.7795,-205.991 1333.7795,-205.9909"/>
</g>
<!-- MaterialModule -->
<g id="node13" class="node">
<title>MaterialModule</title>
<polygon fill="#8dd3c7" stroke="#000000" points="1198.4706,-187 1195.4706,-191 1174.4706,-191 1171.4706,-187 1091.5294,-187 1091.5294,-151 1198.4706,-151 1198.4706,-187"/>
<text text-anchor="middle" x="1145" y="-164.8" font-family="Times,serif" font-size="14.00" fill="#000000">MaterialModule</text>
</g>
<!-- MaterialModule&#45;&gt;HomeModule -->
<g id="edge12" class="edge">
<title>MaterialModule&#45;&gt;HomeModule</title>
<path fill="none" stroke="#000000" d="M1145,-187.2396C1145,-202.5706 1145,-222 1145,-222 1145,-222 1309.1316,-222 1309.1316,-222"/>
<polygon fill="#000000" stroke="#000000" points="1309.1316,-225.5001 1319.1316,-222 1309.1315,-218.5001 1309.1316,-225.5001"/>
</g>
<!-- NgxMaskModule.forRoot() -->
<g id="node14" class="node">
<title>NgxMaskModule.forRoot()</title>
<polygon fill="#8dd3c7" stroke="#000000" points="1073.6298,-187 1070.6298,-191 1049.6298,-191 1046.6298,-187 902.3702,-187 902.3702,-151 1073.6298,-151 1073.6298,-187"/>
<text text-anchor="middle" x="988" y="-164.8" font-family="Times,serif" font-size="14.00" fill="#000000">NgxMaskModule.forRoot()</text>
</g>
<!-- NgxMaskModule.forRoot()&#45;&gt;HomeModule -->
<g id="edge13" class="edge">
<title>NgxMaskModule.forRoot()&#45;&gt;HomeModule</title>
<path fill="none" stroke="#000000" d="M988,-187.0336C988,-204.0597 988,-227 988,-227 988,-227 1308.8903,-227 1308.8903,-227"/>
<polygon fill="#000000" stroke="#000000" points="1308.8904,-230.5001 1318.8903,-227 1308.8903,-223.5001 1308.8904,-230.5001"/>
</g>
<!-- NgxLoadingModule.forRoot(args) -->
<g id="node15" class="node">
<title>NgxLoadingModule.forRoot(args)</title>
<polygon fill="#8dd3c7" stroke="#000000" points="884.0036,-187 881.0036,-191 860.0036,-191 857.0036,-187 673.9964,-187 673.9964,-151 884.0036,-151 884.0036,-187"/>
<text text-anchor="middle" x="779" y="-164.8" font-family="Times,serif" font-size="14.00" fill="#000000">NgxLoadingModule.forRoot(args)</text>
</g>
<!-- NgxLoadingModule.forRoot(args)&#45;&gt;HomeModule -->
<g id="edge14" class="edge">
<title>NgxLoadingModule.forRoot(args)&#45;&gt;HomeModule</title>
<path fill="none" stroke="#000000" d="M779,-187.2222C779,-205.8285 779,-232 779,-232 779,-232 1308.9556,-232 1308.9556,-232"/>
<polygon fill="#000000" stroke="#000000" points="1308.9556,-235.5001 1318.9556,-232 1308.9556,-228.5001 1308.9556,-235.5001"/>
</g>
<!-- PasswordStrengthBarModule -->
<g id="node16" class="node">
<title>PasswordStrengthBarModule</title>
<polygon fill="#8dd3c7" stroke="#000000" points="656.3543,-187 653.3543,-191 632.3543,-191 629.3543,-187 475.6457,-187 475.6457,-151 656.3543,-151 656.3543,-187"/>
<text text-anchor="middle" x="566" y="-164.8" font-family="Times,serif" font-size="14.00" fill="#000000">PasswordStrengthBarModule</text>
</g>
<!-- PasswordStrengthBarModule&#45;&gt;HomeModule -->
<g id="edge15" class="edge">
<title>PasswordStrengthBarModule&#45;&gt;HomeModule</title>
<path fill="none" stroke="#000000" d="M566,-187.2228C566,-207.3652 566,-237 566,-237 566,-237 1309.2373,-237 1309.2373,-237"/>
<polygon fill="#000000" stroke="#000000" points="1309.2373,-240.5001 1319.2373,-237 1309.2373,-233.5001 1309.2373,-240.5001"/>
</g>
<!-- NgxImgModule.forRoot() -->
<g id="node17" class="node">
<title>NgxImgModule.forRoot()</title>
<polygon fill="#8dd3c7" stroke="#000000" points="457.0777,-187 454.0777,-191 433.0777,-191 430.0777,-187 294.9223,-187 294.9223,-151 457.0777,-151 457.0777,-187"/>
<text text-anchor="middle" x="376" y="-164.8" font-family="Times,serif" font-size="14.00" fill="#000000">NgxImgModule.forRoot()</text>
</g>
<!-- NgxImgModule.forRoot()&#45;&gt;HomeModule -->
<g id="edge16" class="edge">
<title>NgxImgModule.forRoot()&#45;&gt;HomeModule</title>
<path fill="none" stroke="#000000" d="M376,-187.0449C376,-208.6623 376,-242 376,-242 376,-242 1308.9163,-242 1308.9163,-242"/>
<polygon fill="#000000" stroke="#000000" points="1308.9163,-245.5001 1318.9163,-242 1308.9162,-238.5001 1308.9163,-245.5001"/>
</g>
<!-- Angular2PromiseButtonModule.forRoot() -->
<g id="node18" class="node">
<title>Angular2PromiseButtonModule.forRoot()</title>
<polygon fill="#8dd3c7" stroke="#000000" points="276.2933,-187 273.2933,-191 252.2933,-191 249.2933,-187 23.7067,-187 23.7067,-151 276.2933,-151 276.2933,-187"/>
<text text-anchor="middle" x="150" y="-164.8" font-family="Times,serif" font-size="14.00" fill="#000000">Angular2PromiseButtonModule.forRoot()</text>
</g>
<!-- Angular2PromiseButtonModule.forRoot()&#45;&gt;HomeModule -->
<g id="edge17" class="edge">
<title>Angular2PromiseButtonModule.forRoot()&#45;&gt;HomeModule</title>
<path fill="none" stroke="#000000" d="M150,-187.0908C150,-210.1328 150,-247 150,-247 150,-247 1309.0764,-247 1309.0764,-247"/>
<polygon fill="#000000" stroke="#000000" points="1309.0765,-250.5001 1319.0764,-247 1309.0764,-243.5001 1309.0765,-250.5001"/>
</g>
</g>
</svg>
